PathFileType	4	(X/Y/Z)	45_1_5_p0_0-170_filt_butterworth.trc
DataRate	CameraRate	NumFrames	NumMarkers	Units	OrigDataRate	OrigDataStartFrame	OrigNumFrames
60.0	60.0	7	27	m	60.0	127	170
Frame#	Time	RHip			RKnee			RAnkle			RBigToe			RSmallToe			RHeel			LHip			LKnee			LAnkle			LBigToe			LSmallToe			LHeel			Neck			Head			Nose			RShoulder			RElbow			RWrist			RThumb			RIndex			RPinky			LShoulder			LElbow			LWrist			LThumb			LIndex			LPinky			
		X1	Y1	Z1	X2	Y2	Z2	X3	Y3	Z3	X4	Y4	Z4	X5	Y5	Z5	X6	Y6	Z6	X7	Y7	Z7	X8	Y8	Z8	X9	Y9	Z9	X10	Y10	Z10	X11	Y11	Z11	X12	Y12	Z12	X13	Y13	Z13	X14	Y14	Z14	X15	Y15	Z15	X16	Y16	Z16	X17	Y17	Z17	X18	Y18	Z18	X19	Y19	Z19	X20	Y20	Z20	X21	Y21	Z21	X22	Y22	Z22	X23	Y23	Z23	X24	Y24	Z24	X25	Y25	Z25	X26	Y26	Z26	X27	Y27	Z27	
127	2.1166666666666667	0.566758185764346	0.46468615692565185	0.8194967592614589	0.5853646310234787	0.6912582077919075	1.2634839592430425	0.6036272893349057	0.8023889560451445	1.6726243007807706	0.5977838511308248	0.6876695056587988	1.7496836306467218	0.6590667115362518	0.6802854180381704	1.7384729286564407	0.5839460345209646	0.9511672072634134	1.7423759708285076	0.3417947862924966	0.4988984832555119	0.8329919932834616	0.3954759354000166	0.6746527897098323	1.2838073250442537	0.4015148229905857	0.8362279512542826	1.6990991493687657	0.45304927860609784	0.6718216634097501	1.7584392187080922	0.38866204720134806	0.7092330750636234	1.7628834035088903	0.4147413477352901	0.9048816351964507	1.7388434262657824	0.4125014246995844	0.24846226795852006	0.2717485409984861	0.3585725150230452	0.17066591647706253	0.03734327843883141	0.3907381802810351	0.1616306136432085	0.1718501973672999	0.5939750536292722	0.31823363828591256	0.3336398718973365	0.6521952272113937	0.34242236174256135	0.6113905589381544	0.5599500170858538	0.3023508370342299	0.8780783251327267	0.44483492873529334	0.3320755686750648	0.9755415071309421	0.4582551021114786	0.3395328958660427	1.00457660968261	0.5049257062592957	0.34352058697115406	1.0058560324303358	0.2550262595324416	0.3054073269626767	0.3709977974930959	0.2474918956452012	0.3227050522605621	0.6376800268091367	0.3682205589784287	0.2583046705672038	0.8681578122696304	0.4511727754826005	0.2864785527542644	0.9312243440186055	0.4675481106487954	0.27343100715520247	0.9704986341353214	0.43966878516126046	0.3290635243078272	0.9744058169723788
128	2.1333333333333333	0.5686207739474066	0.4657666790404567	0.82067988961778	0.5856109780636485	0.6933051625838239	1.2632986651220353	0.6035852508673067	0.8022434248975963	1.6726226286784025	0.598144199924055	0.6855636863536058	1.7489457103258552	0.6592438963441271	0.6805487145374303	1.7383098977100153	0.5826292725829446	0.9460090537364283	1.7425230495626653	0.34586262998730133	0.4989195781964777	0.837381847743796	0.3964794326154786	0.6696884030532337	1.28370898171839	0.4018159221676533	0.838056703724471	1.6979900012951115	0.45324349144216636	0.6716369208489816	1.7582985672006544	0.3888234800894887	0.7089083963634114	1.7626796031880925	0.41470436989923953	0.9046784183825495	1.739066854444173	0.41402334183025125	0.24534712571963208	0.2716655002367776	0.3608941864385995	0.17073287616468302	0.0365161415256986	0.3913355191017022	0.16506345373022252	0.170331192794033	0.5950197282842422	0.317560696463116	0.3335746075160756	0.6518309122805973	0.34232390062513457	0.611331234334742	0.5574394063977984	0.3101176788505481	0.8773315348816997	0.44367835505358777	0.33699857029991365	0.9755244714598847	0.45777583496948565	0.3463955820128871	1.0074362668725794	0.5006008134339762	0.36662135664658985	1.0075798747700804	0.25567372497386986	0.3057631578812257	0.3716136317825467	0.25139453062862965	0.32864972968724654	0.6384593045843704	0.36518075718793847	0.2715733491435608	0.8691486080528996	0.44746424061857754	0.29621877765857724	0.9314920134637991	0.4629655864574979	0.29005758076130705	0.9709266094006271	0.44023457362818785	0.33720056340881754	0.972636400724189
129	2.15	0.5701130754867345	0.4677002577814585	0.8203186272811145	0.5861152240056678	0.6962675688050182	1.2625864662803001	0.6033803068703946	0.8016202017097113	1.6721302745448998	0.5997105003660533	0.6831280756030864	1.748014982216885	0.6596474000411122	0.6823484417241721	1.7383199908209899	0.5789324204529745	0.9311460071302877	1.740875618953281	0.3491832345563026	0.498859569104332	0.8405305829311195	0.3978629965406132	0.6638248865115015	1.2834327390252307	0.40167572644419436	0.8398572457704565	1.6974667956960023	0.4535345780344323	0.6733619126726059	1.7584703287705912	0.38915972195763615	0.707299552918675	1.7624963637684696	0.4147086854019621	0.9045828717488539	1.739589054202822	0.41460662491973166	0.24402808763987785	0.2717013207597161	0.3640326614729156	0.17089024085636295	0.03583959647543911	0.39135549666093356	0.16598050056800312	0.17004349861813406	0.5957919137509586	0.31610005157634236	0.3337918955391685	0.6520086482749299	0.3420485324687141	0.6112675870746058	0.5560905390581302	0.3164585453002439	0.8759296359339631	0.44350869798842185	0.337021816352962	0.9751351379103325	0.4581230889093477	0.34917018064743516	1.004706014718995	0.49537529046768364	0.3800172670653693	1.0057821566474987	0.25703943713708954	0.3075799382264315	0.3717982882094485	0.25439384599058235	0.33474202459923175	0.6388556355610653	0.36371612221437655	0.2843530384171417	0.8686740447483005	0.4463388042182005	0.30002097983813214	0.9307287878241497	0.4608037897264001	0.30376982517261536	0.9707023092118897	0.4406466022903023	0.3437099891218505	0.9707312542453574
130	2.1666666666666665	0.5709054406045847	0.4711273882511436	0.818550229677552	0.5866340770082512	0.6984927501614356	1.2612251198910303	0.603052454585594	0.8008666714322215	1.6709496163722606	0.6018257630102722	0.6802036836572767	1.747054760280388	0.6598838864010309	0.6867805811693717	1.7386522302706515	0.573657890228221	0.9096598650768809	1.7360226739669467	0.3511369704090202	0.49884425346544625	0.8405731932459982	0.3989783217660761	0.6604599977127472	1.2836782711390933	0.4011644190088185	0.8408283895327346	1.6985627584099947	0.4535865516142667	0.6772184667881728	1.7591851468278539	0.38983149507208864	0.7035901132578498	1.762243002163839	0.4147840762863899	0.9044540075973085	1.7406422952287997	0.41461196398067923	0.24382366915106202	0.2717610223011901	0.3668869336763198	0.17122035523394044	0.035853706432434795	0.39120799933734196	0.1657700250184394	0.1702972130333265	0.596863126939816	0.3130890449225783	0.3346442909003453	0.6521547719421126	0.34159734906110695	0.6112384031436799	0.5554519890549792	0.32256176597418174	0.8753773283971252	0.44406810902191673	0.33532809730420743	0.9745044890814409	0.4584141750246779	0.3484761790295818	0.9979082273125848	0.4901338949391262	0.38107531127734706	1.0014631040843143	0.2588162264703634	0.3115234271438668	0.37148372087644616	0.2560943290642856	0.3390992562872154	0.6389123868789556	0.3634614717162555	0.29613736396590196	0.8672763913179717	0.4464354455240598	0.3033645448172183	0.9299377895738304	0.46010589767663546	0.3148968559137578	0.9693116672685145	0.4407563434196546	0.3478502236167801	0.9696903360639313
131	2.183333333333333	0.5709101418170874	0.4754723121037309	0.8160343399853078	0.5869980257286818	0.6990113400430404	1.2591775187030747	0.6029744062170992	0.8014252940731448	1.6696045487960725	0.6034081238415604	0.6778808263541157	1.7464480815574732	0.6595175251897026	0.6940136367023767	1.739491154781379	0.569213087899191	0.8910312129862417	1.7288098133122354	0.3518604160779194	0.49878348008428025	0.837504074389645	0.3996345453288954	0.6602304572461892	1.2847796935720053	0.4004845865082899	0.8405725330218914	1.7008551008245893	0.4529507713463085	0.6818412649845459	1.7602940212132447	0.39097230193447086	0.6984846036395026	1.7618609927665156	0.4146849381406854	0.9039647726565699	1.741990769122905	0.4144426897423861	0.24386614621979819	0.2717752735807317	0.3689006930276882	0.17168755911733824	0.036694942800538304	0.391646044750174	0.1656749449250548	0.17059960542476585	0.5983779496253475	0.3090031961754576	0.3362039117331626	0.652114572103436	0.34189911758326813	0.6111430665633547	0.5551722691330692	0.3279124301950349	0.875609043187713	0.4451272107928959	0.3346089123518122	0.9737332042613034	0.458251638102155	0.34704584600687993	0.9906296059408167	0.4858563174792153	0.37548338437136913	0.99664963748185	0.2601007030392168	0.31625840806143524	0.37090291163141553	0.2566584673057002	0.3409858667430974	0.6388162117385173	0.36429185902312927	0.307803286557389	0.8655713623621508	0.44665539885618055	0.308250989419661	0.9296991387734304	0.45988207186841074	0.32251091539761106	0.9673427142515966	0.44085069976126734	0.3507432010564884	0.9693089603462361
132	2.2	0.5699713391108024	0.4787614639238208	0.8127279580782498	0.5872360891286625	0.6983148977073109	1.2566965445445004	0.6035722617795897	0.8047434809109206	1.6690147651131435	0.6040204898185488	0.6767660831070583	1.7461253289832717	0.6587066127127278	0.7020503236278842	1.7409563337726304	0.5671343036629438	0.8814866548400396	1.7223321834576022	0.3522329592510368	0.49814429630310303	0.8323745291923921	0.40052026826911824	0.6597533353235945	1.2859629645712984	0.399720324026894	0.838987047459041	1.7026437937906178	0.4518297749972428	0.6860295399051131	1.761376870370785	0.3923398963758725	0.6941833408110318	1.7614724889387248	0.41412634538829324	0.9035225700789565	1.7429409249270311	0.41430425819539024	0.24390904295613924	0.27171047588525477	0.3704586445503787	0.17218922306960466	0.03783524124207662	0.3934496868865175	0.16606809637333295	0.17063828070153603	0.6000161640897346	0.3048740356404385	0.3381339189078107	0.6519452835794748	0.3449910590384629	0.6107209740106349	0.554755641966115	0.33142832391870025	0.8759333941593943	0.44625894422338963	0.33714070929918666	0.9730082101439426	0.4576055839751046	0.34819583633623136	0.9857878040909698	0.4824283233632483	0.3719097736737498	0.9928310625822421	0.2605155139721397	0.3192615246385549	0.3704670721979246	0.25664778701905105	0.34130921228533684	0.6386911827515854	0.36593569009668037	0.3215513763815815	0.8640623608574478	0.4466513747349384	0.31445458817676264	0.9299648150931945	0.45963797590236366	0.327764616691787	0.966187593704366	0.441271055677665	0.3544694997429326	0.9691900079459264
133	2.216666666666667	0.5686574587429347	0.47992236132742466	0.8084218455165264	0.587387952252872	0.6974121273295972	1.2545930953048616	0.6046846522238449	0.8099140571864503	1.6693718285942292	0.6040576842503286	0.6763776949053711	1.7454675156169865	0.6579859818354435	0.7074373972765178	1.742633958465001	0.5669337286530265	0.8794242679526556	1.7187788150792342	0.35321970435337174	0.49594966493123926	0.8269915149226751	0.40255898818648567	0.6544552828279815	1.2858451521362926	0.39918613528816954	0.837027111499494	1.7027775860098102	0.4510727652956922	0.6901060631516908	1.7621538850825076	0.39340687082008385	0.691935965757609	1.7611414170350042	0.41328341945523045	0.9037891052787015	1.7429498419023273	0.4142584811187255	0.24407804120649715	0.27157492879714595	0.3720438308371856	0.17266571308349987	0.038496748414754686	0.39661458211649986	0.16655497678855985	0.17017796246689218	0.601586564038061	0.3008089815607107	0.34021079283197697	0.6518443447282081	0.3518755761278992	0.6098035941282838	0.5536589521618865	0.33317975707316644	0.8760649783331916	0.4472048596081557	0.34265809582303863	0.9725281254537648	0.45682618531851926	0.3512206764800088	0.984052532482063	0.4791168020395889	0.3726146182969647	0.9901959623132673	0.2609817851360887	0.31904729836406154	0.3704872103429223	0.25652590833125605	0.34117045908617366	0.6385696206322607	0.3676670562975068	0.33602831142433015	0.8634815711518782	0.4468165680884196	0.3206387981208291	0.9306056886086813	0.4589430614991742	0.3322957280387928	0.9666905273734604	0.44178187242564493	0.3590245743708272	0.9694030234432114
